<mxfile host="app.diagrams.net" modified="2022-02-03T22:01:06.375Z" agent="5.0 (Windows NT 10.0; Win64; x64) AppleWebKit/537.36 (KHTML, like Gecko) Chrome/97.0.4692.99 Safari/537.36 Edg/97.0.1072.76" etag="FtW1WN34-uVv8L8Jkggx" version="16.5.3" type="github">
  <diagram id="R2lEEEUBdFMjLlhIrx00" name="Page-1">
    <mxGraphModel dx="1102" dy="1724" grid="1" gridSize="10" guides="1" tooltips="1" connect="1" arrows="1" fold="1" page="1" pageScale="1" pageWidth="850" pageHeight="1100" math="0" shadow="0" extFonts="Permanent Marker^https://fonts.googleapis.com/css?family=Permanent+Marker">
      <root>
        <mxCell id="0" />
        <mxCell id="1" parent="0" />
        <mxCell id="C-vyLk0tnHw3VtMMgP7b-1" value="" style="edgeStyle=entityRelationEdgeStyle;endArrow=ERzeroToMany;startArrow=ERone;endFill=1;startFill=0;" parent="1" target="C-vyLk0tnHw3VtMMgP7b-6" edge="1">
          <mxGeometry width="100" height="100" relative="1" as="geometry">
            <mxPoint x="370" y="165" as="sourcePoint" />
            <mxPoint x="440" y="620" as="targetPoint" />
          </mxGeometry>
        </mxCell>
        <mxCell id="C-vyLk0tnHw3VtMMgP7b-12" value="" style="edgeStyle=entityRelationEdgeStyle;endArrow=ERzeroToMany;startArrow=ERone;endFill=1;startFill=0;" parent="1" target="C-vyLk0tnHw3VtMMgP7b-17" edge="1">
          <mxGeometry width="100" height="100" relative="1" as="geometry">
            <mxPoint x="700" y="165" as="sourcePoint" />
            <mxPoint x="460" y="205" as="targetPoint" />
          </mxGeometry>
        </mxCell>
        <mxCell id="buJl7mv-wKF2dcd_H4Q0-1" value="Student" style="swimlane;childLayout=stackLayout;horizontal=1;startSize=30;horizontalStack=0;rounded=1;fontSize=14;fontStyle=0;strokeWidth=2;resizeParent=0;resizeLast=1;shadow=0;dashed=0;align=center;fillColor=#0050ef;fontColor=#ffffff;strokeColor=#001DBC;gradientColor=none;swimlaneFillColor=default;perimeterSpacing=0;" vertex="1" parent="1">
          <mxGeometry x="40" y="-1056" width="168" height="120" as="geometry" />
        </mxCell>
        <mxCell id="buJl7mv-wKF2dcd_H4Q0-2" value="firstName (string)&#xa;lastName (string)&#xa;email (string)&#xa;dateRegistered (dateTime)" style="align=left;strokeColor=none;fillColor=none;spacingLeft=4;fontSize=13;verticalAlign=top;resizable=0;rotatable=0;part=1;" vertex="1" parent="buJl7mv-wKF2dcd_H4Q0-1">
          <mxGeometry y="30" width="168" height="90" as="geometry" />
        </mxCell>
        <mxCell id="buJl7mv-wKF2dcd_H4Q0-3" value="Course" style="swimlane;childLayout=stackLayout;horizontal=1;startSize=30;horizontalStack=0;rounded=1;fontSize=14;fontStyle=0;strokeWidth=2;resizeParent=0;resizeLast=1;shadow=0;dashed=0;align=center;fillColor=#e51400;fontColor=#ffffff;strokeColor=#B20000;swimlaneFillColor=default;" vertex="1" parent="1">
          <mxGeometry x="420" y="-1070" width="160" height="120" as="geometry" />
        </mxCell>
        <mxCell id="buJl7mv-wKF2dcd_H4Q0-4" value="title (string)&#xa;price (float)&#xa;instructor (string)&#xa;tags (string)" style="align=left;strokeColor=none;fillColor=none;spacingLeft=4;fontSize=13;verticalAlign=top;resizable=0;rotatable=0;part=1;" vertex="1" parent="buJl7mv-wKF2dcd_H4Q0-3">
          <mxGeometry y="30" width="160" height="90" as="geometry" />
        </mxCell>
        <mxCell id="buJl7mv-wKF2dcd_H4Q0-5" value="" style="edgeStyle=entityRelationEdgeStyle;fontSize=12;html=1;endArrow=ERmany;startArrow=ERmany;rounded=0;exitX=1;exitY=0.75;exitDx=0;exitDy=0;entryX=0;entryY=0.25;entryDx=0;entryDy=0;" edge="1" parent="1" source="buJl7mv-wKF2dcd_H4Q0-2" target="buJl7mv-wKF2dcd_H4Q0-4">
          <mxGeometry width="100" height="100" relative="1" as="geometry">
            <mxPoint x="370" y="-880" as="sourcePoint" />
            <mxPoint x="470" y="-980" as="targetPoint" />
          </mxGeometry>
        </mxCell>
        <mxCell id="buJl7mv-wKF2dcd_H4Q0-6" value="entrolls" style="edgeLabel;html=1;align=center;verticalAlign=middle;resizable=0;points=[];" vertex="1" connectable="0" parent="buJl7mv-wKF2dcd_H4Q0-5">
          <mxGeometry x="-0.0116" y="-1" relative="1" as="geometry">
            <mxPoint as="offset" />
          </mxGeometry>
        </mxCell>
      </root>
    </mxGraphModel>
  </diagram>
</mxfile>
